<?xml version="1.0" encoding="UTF-8" standalone="no"?>
<svg
   version="1.0"
   width="200.000000pt"
   height="200.000000pt"
   viewBox="0 0 200.000000 200.000000"
   preserveAspectRatio="xMidYMid meet"
   id="svg44"
   sodipodi:docname="iconocriollo.svg"
   inkscape:version="1.1.2 (0a00cf5339, 2022-02-04, custom)"
   xmlns:inkscape="http://www.inkscape.org/namespaces/inkscape"
   xmlns:sodipodi="http://sodipodi.sourceforge.net/DTD/sodipodi-0.dtd"
   xmlns="http://www.w3.org/2000/svg"
   xmlns:svg="http://www.w3.org/2000/svg">
  <defs
     id="defs48" />
  <sodipodi:namedview
     id="namedview46"
     pagecolor="#ffffff"
     bordercolor="#666666"
     borderopacity="1.0"
     inkscape:pageshadow="2"
     inkscape:pageopacity="0.0"
     inkscape:pagecheckerboard="0"
     inkscape:document-units="pt"
     showgrid="false"
     inkscape:zoom="2.0603324"
     inkscape:cx="210.8883"
     inkscape:cy="158.95493"
     inkscape:window-width="1280"
     inkscape:window-height="1015"
     inkscape:window-x="20"
     inkscape:window-y="20"
     inkscape:window-maximized="0"
     inkscape:current-layer="svg44" />
  <g
     id="g1199">
    <rect
       style="fill:#cccccc;fill-opacity:1;stroke-width:0.619233"
       id="rect3560"
       width="199.1638"
       height="199.7641"
       x="0.21118541"
       y="0.11943483" />
    <g
       id="g1173"
       transform="translate(-1.0004826,5.9195735)">
      <rect
         style="fill:#ffffff;fill-opacity:1;stroke-width:0.532425"
         id="rect3554"
         width="167.85242"
         height="141.11336"
         x="16.867361"
         y="10.427143" />
      <g
         id="g1047"
         transform="matrix(0.90853193,0,0,0.90853193,9.0318446,-0.10265288)">
        <path
           d="m 82.5,26.5 c -2.4,2.3 -2.5,2.9 -2.5,16.3 0,13.7 0,13.9 -2.6,16.3 -7.3,6.7 -9.6,20.6 -5,30.4 4.3,9.5 12.5,15.3 22.5,16.2 10.6,1 20.9,-4 26.3,-12.7 l 3.1,-5 h 9.8 9.9 l 0.6,2.7 c 1.9,8.2 8.2,14.2 15.8,15 14.9,1.7 25.1,-12.9 18.5,-26.4 -1.2,-2.4 -3.2,-5.1 -4.5,-6 -2,-1.2 -2.4,-2.4 -2.4,-6.2 0,-2.5 -0.5,-6.3 -1,-8.3 C 169.2,52.4 167.9,52 146.8,52 H 128 V 40.5 c 0,-11 -0.1,-11.7 -2.5,-14 C 123.1,24 122.9,24 104,24 85.1,24 84.9,24 82.5,26.5 Z"
           id="path2"
           style="fill:#d40000;fill-opacity:1;stroke:none;stroke-width:0.1" />
        <path
           d="M 37.9,32.5 C 33.2,35 32.5,38.7 32.5,59.8 V 79 h -3.2 c -3,0 -3.3,0.3 -3.3,3 0,2.2 0.5,3 1.8,3 2.2,0 4.6,4.9 3.1,6.6 -0.7,0.8 -0.7,1.4 0.1,1.9 0.9,0.6 1.4,-0.1 1.1,-1.8 0,-0.4 0.6,-0.7 1.4,-0.7 0.8,0 1.4,0.4 1.3,0.9 -0.3,0.8 0.2,1.1 1.8,1.1 0.4,0 0.1,-0.6 -0.5,-1.3 -0.8,-1 -0.7,-2.1 0.2,-4 L 37.5,85 H 50.7 C 62.8,85 64,84.8 65,83.1 65.6,81.9 66,72.6 66,60 66,31.8 65.5,31 49.2,31 c -5.6,0.1 -9.6,0.6 -11.3,1.5 z"
           id="path4"
           style="fill:#d40000;fill-opacity:1;stroke:none;stroke-width:0.1" />
        <path
           d="m 28,95.5 c 0,0.8 0.5,1.5 1,1.5 0.6,0 1,-0.7 1,-1.5 0,-0.8 -0.4,-1.5 -1,-1.5 -0.5,0 -1,0.7 -1,1.5 z"
           id="path6"
           style="fill:#d40000;fill-opacity:1;stroke:none;stroke-width:0.1" />
        <path
           d="m 32.6,94.9 c -0.4,0.5 -0.2,1.2 0.3,1.5 0.5,0.4 1.2,0.2 1.5,-0.3 0.4,-0.5 0.2,-1.2 -0.3,-1.5 -0.5,-0.4 -1.2,-0.2 -1.5,0.3 z"
           id="path8"
           style="fill:#d40000;fill-opacity:1;stroke:none;stroke-width:0.1" />
        <path
           d="m 36.7,94.7 c -0.2,0.5 0.2,1.9 0.8,3.1 0.9,1.8 1.5,2 2.1,1.1 0.4,-0.7 0.3,-1.4 -0.4,-1.7 -0.7,-0.2 -1,-0.8 -0.7,-1.2 0.3,-0.5 0.1,-1.1 -0.4,-1.4 -0.5,-0.4 -1.1,-0.3 -1.4,0.1 z"
           id="path10"
           style="fill:#d40000;fill-opacity:1;stroke:none;stroke-width:0.1" />
        <path
           d="m 25.6,97.9 c -0.4,0.5 -0.2,1.2 0.3,1.5 0.5,0.4 1.2,0.2 1.5,-0.3 0.4,-0.5 0.2,-1.2 -0.3,-1.5 -0.5,-0.4 -1.2,-0.2 -1.5,0.3 z"
           id="path12"
           style="fill:#d40000;fill-opacity:1;stroke:none;stroke-width:0.1" />
        <path
           d="m 29.7,99.3 c -1,1.6 -1.3,2.8 -0.7,3.2 0.6,0.3 1,0 1,-0.9 0,-0.8 0.5,-1.6 1.2,-1.8 0.6,-0.2 0.9,-1 0.7,-1.7 -0.3,-0.9 -1,-0.5 -2.2,1.2 z"
           id="path14"
           style="fill:#d40000;fill-opacity:1;stroke:none;stroke-width:0.1" />
        <path
           d="m 34.5,98 c -0.3,0.5 -0.1,1 0.4,1 0.6,0 1.1,-0.5 1.1,-1 0,-0.6 -0.2,-1 -0.4,-1 -0.3,0 -0.8,0.4 -1.1,1 z"
           id="path16"
           style="fill:#d40000;fill-opacity:1;stroke:none;stroke-width:0.1" />
        <path
           d="m 24,101.6 c 0,0.8 0.5,1.2 1,0.9 0.6,-0.4 0.8,-1.1 0.5,-1.6 -0.9,-1.4 -1.5,-1.1 -1.5,0.7 z"
           id="path18"
           style="fill:#d40000;fill-opacity:1;stroke:none;stroke-width:0.1" />
        <path
           d="m 32.5,100.9 c -0.3,0.5 -0.1,1.2 0.5,1.6 0.5,0.3 1,-0.1 1,-0.9 0,-1.8 -0.6,-2.1 -1.5,-0.7 z"
           id="path20"
           style="fill:#d40000;fill-opacity:1;stroke:none;stroke-width:0.1" />
        <path
           d="m 36,102.1 c 0,0.5 0.5,0.7 1,0.4 0.6,-0.3 1,-0.8 1,-1.1 0,-0.2 -0.4,-0.4 -1,-0.4 -0.5,0 -1,0.5 -1,1.1 z"
           id="path22"
           style="fill:#d40000;fill-opacity:1;stroke:none;stroke-width:0.1" />
        <path
           d="m 40,102 c 0,0.5 0.5,1 1,1 0.6,0 1,-0.5 1,-1 0,-0.6 -0.4,-1 -1,-1 -0.5,0 -1,0.4 -1,1 z"
           id="path24"
           style="fill:#d40000;fill-opacity:1;stroke:none;stroke-width:0.1" />
        <path
           d="m 21.6,103.9 c -0.4,0.5 -0.2,1.2 0.3,1.5 0.5,0.4 1.2,0.2 1.5,-0.3 0.4,-0.5 0.2,-1.2 -0.3,-1.5 -0.5,-0.4 -1.2,-0.2 -1.5,0.3 z"
           id="path26"
           style="fill:#d40000;fill-opacity:1;stroke:none;stroke-width:0.1" />
        <path
           d="m 26,105.1 c 0,0.5 0.5,0.7 1,0.4 0.6,-0.3 1,-0.8 1,-1.1 0,-0.2 -0.4,-0.4 -1,-0.4 -0.5,0 -1,0.5 -1,1.1 z"
           id="path28"
           style="fill:#d40000;fill-opacity:1;stroke:none;stroke-width:0.1" />
        <path
           d="m 30,105.1 c 0,0.5 0.5,0.7 1,0.4 0.6,-0.3 1,-0.8 1,-1.1 0,-0.2 -0.4,-0.4 -1,-0.4 -0.5,0 -1,0.5 -1,1.1 z"
           id="path30"
           style="fill:#d40000;fill-opacity:1;stroke:none;stroke-width:0.1" />
        <path
           d="m 34,105.1 c 0,0.5 0.5,0.7 1,0.4 0.6,-0.3 1,-0.8 1,-1.1 0,-0.2 -0.4,-0.4 -1,-0.4 -0.5,0 -1,0.5 -1,1.1 z"
           id="path32"
           style="fill:#d40000;fill-opacity:1;stroke:none;stroke-width:0.1" />
        <path
           d="m 38,105.1 c 0,0.5 0.5,0.7 1,0.4 0.6,-0.3 1,-0.8 1,-1.1 0,-0.2 -0.4,-0.4 -1,-0.4 -0.5,0 -1,0.5 -1,1.1 z"
           id="path34"
           style="fill:#d40000;fill-opacity:1;stroke:none;stroke-width:0.1" />
        <path
           d="m 42,105.1 c 0,0.5 0.5,0.7 1,0.4 0.6,-0.3 1,-0.8 1,-1.1 0,-0.2 -0.4,-0.4 -1,-0.4 -0.5,0 -1,0.5 -1,1.1 z"
           id="path36"
           style="fill:#d40000;fill-opacity:1;stroke:none;stroke-width:0.1" />
        <path
           d="m 21,122.5 v 6.5 l 79.8,-0.2 79.7,-0.3 0.3,-6.3 0.3,-6.2 H 101 21 Z"
           id="path38"
           style="fill:#4646ff;fill-opacity:1;stroke:none;stroke-width:0.1" />
        <path
           d="m 21.2,148.2 0.3,6.3 h 79.5 79.5 l 0.3,-6.3 0.3,-6.2 H 101 20.9 Z"
           id="path40"
           style="fill:#4646ff;fill-opacity:1;stroke:none;stroke-width:0.1" />
      </g>
    </g>
  </g>
</svg>
